<svg xmlns="http://www.w3.org/2000/svg" version="1.1" xmlns:xlink="http://www.w3.org/1999/xlink" width="1000" height="1000"><metadata><rdf:RDF xmlns:rdf="http://www.w3.org/1999/02/22-rdf-syntax-ns#" xmlns:dc="http://purl.org/dc/elements/1.1/"><rdf:Description><dc:creator>RealFaviconGenerator</dc:creator><dc:source>https://realfavicongenerator.net</dc:source></rdf:Description></rdf:RDF></metadata><style>
    #light-icon {
      display: inline;
    }
    #dark-icon {
      display: none;
    }

    @media (prefers-color-scheme: dark) {
      #light-icon {
        display: none;
      }
      #dark-icon {
        display: inline;
      }
    }
  </style><g id="light-icon"><svg xmlns="http://www.w3.org/2000/svg" version="1.1" xmlns:xlink="http://www.w3.org/1999/xlink" width="1000" height="1000"><g clip-path="url(#SvgjsClipPath1024)"><rect width="1000" height="1000" fill="#ffffff"></rect><g transform="matrix(0.875,0,0,0.875,150,150)"><svg xmlns="http://www.w3.org/2000/svg" width="800px" height="800px" viewBox="0 0 24 24" fill="none"><path d="M16.4425 7.32787C16.7196 7.01999 17.1938 6.99503 17.5017 7.27213L19.2392 8.83587C19.9756 9.49853 20.5864 10.0482 21.0058 10.5468C21.4468 11.071 21.7603 11.6343 21.7603 12.3296C21.7603 13.0249 21.4468 13.5882 21.0058 14.1124C20.5864 14.611 19.9756 15.1607 19.2392 15.8233L17.5017 17.3871C17.1938 17.6642 16.7196 17.6392 16.4425 17.3313C16.1654 17.0234 16.1904 16.5492 16.4983 16.2721L18.1947 14.7453C18.9826 14.0362 19.5138 13.5558 19.8579 13.1468C20.1882 12.7542 20.2603 12.525 20.2603 12.3296C20.2603 12.1342 20.1882 11.905 19.8579 11.5124C19.5138 11.1034 18.9826 10.623 18.1947 9.91389L16.4983 8.38707C16.1904 8.10997 16.1654 7.63576 16.4425 7.32787Z" fill="#1C274C"></path><path d="M7.50178 8.38707C7.80966 8.10997 7.83462 7.63576 7.55752 7.32787C7.28043 7.01999 6.80621 6.99503 6.49833 7.27213L4.76084 8.83587C4.0245 9.49853 3.41369 10.0482 2.99428 10.5468C2.55325 11.071 2.23975 11.6343 2.23975 12.3296C2.23975 13.0249 2.55325 13.5882 2.99428 14.1124C3.41369 14.611 4.02449 15.1607 4.76082 15.8233L6.49833 17.3871C6.80621 17.6642 7.28043 17.6392 7.55752 17.3313C7.83462 17.0234 7.80966 16.5492 7.50178 16.2721L5.80531 14.7453C5.01743 14.0362 4.48623 13.5558 4.14213 13.1468C3.81188 12.7542 3.73975 12.525 3.73975 12.3296C3.73975 12.1342 3.81188 11.905 4.14213 11.5124C4.48623 11.1034 5.01743 10.623 5.80531 9.91389L7.50178 8.38707Z" fill="#1C274C"></path><path opacity="0.5" d="M14.1816 4.2755C14.5817 4.3827 14.8191 4.79396 14.7119 5.19406L10.7383 20.0238C10.6311 20.4239 10.2198 20.6613 9.81974 20.5541C9.41964 20.4469 9.18221 20.0356 9.28941 19.6355L13.263 4.80583C13.3702 4.40573 13.7815 4.16829 14.1816 4.2755Z" fill="#1C274C"></path></svg></g></g><defs><clipPath id="SvgjsClipPath1024"><rect width="1000" height="1000" x="0" y="0" rx="300" ry="300"></rect></clipPath></defs></svg></g><g id="dark-icon"><svg xmlns="http://www.w3.org/2000/svg" version="1.1" xmlns:xlink="http://www.w3.org/1999/xlink" width="1000" height="1000"><g><g transform="matrix(1.25,0,0,1.25,0,0)" style="filter: invert(100%)"><svg xmlns="http://www.w3.org/2000/svg" version="1.1" width="800px" height="800px" viewBox="0 0 1024 1024" class="icon"><path d="M602.587685 727.095869c7.981294-58.263445 57.465316-115.728761 73.427903-131.691348 94.977397-91.784879 97.371785-242.631333 5.586906-337.60873s-243.429462-97.371785-338.406859-5.586906-97.371785 243.429462-5.586905 338.406859l5.586905 5.586906c15.962588 15.164458 65.44661 72.629774 73.427904 131.691348 1.596259 17.558846 3.192518 35.117693 2.394388 51.87841h180.377241c0.798129-17.558846 1.596259-35.117693 3.192517-52.676539z" fill="#FFECBA"></path><path d="M600.193297 795.734996H419.017927c-3.990647 0-7.981294-1.596259-11.173812-4.788776-3.192518-3.192518-4.788776-7.183164-4.788776-11.173812 0-16.760717-0.798129-33.521434-2.394388-50.282151-7.183164-51.87841-51.87841-105.353079-68.639127-122.113796l-5.586906-5.586905c-47.887763-48.685892-73.427903-113.334373-71.831644-181.9735s28.732658-131.691348 77.41855-179.579111 113.334373-73.427903 181.973499-71.831645c67.840998 0.798129 131.691348 28.732658 179.579112 77.41855s73.427903 113.334373 71.831645 181.9735c-0.798129 67.840998-28.732658 131.691348-77.418551 179.579111-15.962588 15.164458-61.455963 69.437256-68.639127 122.113796-1.596259 16.760717-3.192518 33.521434-2.394388 50.282151 0 3.990647-1.596259 7.981294-4.788776 11.173812-3.990647 3.192518-7.981294 4.788776-11.971941 4.788776z m-165.212783-31.925175h149.250195c0-12.77007 1.596259-25.54014 2.394388-38.310211 10.375682-74.226033 77.41855-139.672642 78.21668-140.470771 43.098987-41.502728 67.042868-97.371785 67.840998-157.231489 0.798129-59.859704-21.549493-116.52689-63.052222-158.827748-41.502728-43.098987-97.371785-67.042868-157.231488-67.840997C453.33749 199.532346 396.670304 221.879969 354.369447 263.382697c-43.098987 41.502728-67.042868 97.371785-67.840998 157.231489-0.798129 59.859704 21.549493 116.52689 63.052221 158.827747l4.788777 4.788776c0.798129 0.798129 67.840998 67.042868 78.216679 140.470772 1.596259 13.5682 2.394388 26.33827 2.394388 39.10834z" fill=""></path><path d="M418.219797 902.684334c-2.394388 53.474669 37.512081 99.766173 91.78488 105.353078 53.474669-4.788776 94.179267-51.080281 91.784879-105.353078 0-39.906469-1.596259-85.399844-1.596259-123.710055H419.017927c0.798129 38.31021-0.798129 83.803585-0.79813 123.710055z" fill="#B2DAF6"></path><path d="M510.004677 1024h-1.596259c-62.254092-5.586906-108.545596-59.061574-106.151208-121.315666 0-18.356976 0-37.512081 0.798129-55.869057 0-22.347623 0.798129-46.291504 0.798129-67.042869 0-3.990647 1.596259-7.981294 4.788777-11.173811 3.192518-3.192518 7.183164-4.788776 11.173811-4.788776h181.17537c3.990647 0 7.981294 1.596259 11.173812 4.788776 3.192518 3.192518 4.788776 7.183164 4.788776 11.173811 0 19.953235 0 43.098987 0.798129 65.44661 0 19.155105 0.798129 39.10834 0.79813 57.465316 2.394388 62.254092-43.897116 115.728761-106.949338 121.315666h-1.596258z m-75.024163-228.265004c0 16.760717 0 34.319564-0.798129 51.080281 0 19.155105-0.798129 38.31021-0.798129 55.869057v0.798129c-1.596259 44.695246 31.127046 83.005456 75.822291 88.592362 44.695246-4.788776 78.21668-43.098987 75.822292-88.592362 0-19.155105 0-38.31021-0.79813-57.465316 0-16.760717-0.798129-34.319564-0.798129-50.282151H434.980514zM418.219797 902.684334z" fill=""></path><path d="M633.714731 795.734996H378.313328c-8.779423 0-15.962588-7.183164-15.962588-15.962588s7.183164-15.962588 15.962588-15.962587h255.401403c8.779423 0 15.962588 7.183164 15.962588 15.962587s-7.183164 15.962588-15.962588 15.962588zM601.789556 861.181606H418.219797c-8.779423 0-15.962588-7.183164-15.962587-15.962588s7.183164-15.962588 15.962587-15.962588h183.569759c8.779423 0 15.962588 7.183164 15.962587 15.962588s-7.183164 15.962588-15.962587 15.962588zM601.789556 919.445051H418.219797c-8.779423 0-15.962588-7.183164-15.962587-15.962588s7.183164-15.962588 15.962587-15.962588h183.569759c8.779423 0 15.962588 7.183164 15.962587 15.962588s-7.183164 15.962588-15.962587 15.962588z" fill=""></path><path d="M478.877631 795.734996c-8.779423 0-15.962588-7.183164-15.962588-15.962588 0-1.596259-2.394388-144.461419-2.394388-209.109898h-3.990647c-19.953235 0-34.319564-5.586906-43.897116-15.962588-8.779423-8.779423-12.77007-21.549493-11.971941-36.713952 0.798129-12.77007 7.183164-41.502728 50.282151-41.502728 12.77007 0 23.145752 3.192518 29.530787 10.375682 11.971941 11.971941 11.971941 29.530787 11.173812 50.282152v0.798129h31.925175V526.765394c0-31.925175 18.356976-49.484022 51.080281-49.484022 13.5682 0 24.742011 5.586906 32.723304 15.164458 6.385035 7.981294 10.375682 19.155105 10.375682 30.328917 0 23.943882-15.962588 48.685892-44.695245 48.685892h-17.558847v208.311769c0 8.779423-7.183164 15.962588-15.962587 15.962588s-15.962588-7.183164-15.962588-15.962588V571.460639h-31.925175c0.798129 63.850351 2.394388 206.715511 2.394388 208.311769 0.798129 8.779423-5.586906 15.962588-15.164458 15.962588z m77.41855-256.199532h17.558846c10.375682 0 12.77007-11.971941 12.77007-16.760717 0-3.990647-0.798129-7.981294-3.192517-10.375682-0.798129-1.596259-3.192518-3.192518-7.981294-3.192518-16.760717 0-19.155105 3.990647-19.155105 17.558847v12.77007z m-105.353079-30.328917c-17.558846 0-17.558846 5.586906-18.356976 11.971941 0 5.586906 0.798129 10.375682 3.192518 12.77007 3.192518 3.192518 11.173811 5.586906 20.751364 5.586906h3.990647v-0.79813c0-10.375682 0-25.54014-2.394388-27.934528-0.798129-0.798129-2.394388-1.596259-7.183165-1.596259zM332.819953 435.778644c-8.779423 0-15.962588-7.183164-15.962587-15.962588C316.857366 320.848012 398.266563 239.438815 498.032736 239.438815c8.779423 0 15.962588 7.183164 15.962587 15.962588s-7.183164 15.962588-15.962587 15.962588c-82.207327 0-149.250195 67.042868-149.250195 148.452065 0 8.779423-7.183164 15.962588-15.962588 15.962588zM153.240842 444.558067H98.968044c-8.779423 0-15.962588-7.183164-15.962588-15.962588s7.183164-15.962588 15.962588-15.962587h54.272798c8.779423 0 15.962588 7.183164 15.962587 15.962587s-7.183164 15.962588-15.962587 15.962588zM925.031956 444.558067h-54.272798c-8.779423 0-15.962588-7.183164-15.962587-15.962588s7.183164-15.962588 15.962587-15.962587h54.272798c8.779423 0 15.962588 7.183164 15.962588 15.962587s-7.183164 15.962588-15.962588 15.962588zM512.399065 85.399844c-8.779423 0-15.962588-7.183164-15.962588-15.962588V15.962588c0-8.779423 7.183164-15.962588 15.962588-15.962588s15.962588 7.183164 15.962587 15.962588v54.272798c0 8.779423-7.183164 15.164458-15.962587 15.164458z" fill=""></path><path d="M234.650039 205.119252c-3.990647 0-7.981294-1.596259-11.173811-4.788777l-38.310211-38.31021c-6.385035-6.385035-6.385035-15.962588 0-22.347623 6.385035-6.385035 15.962588-6.385035 22.347623 0l38.31021 38.310211c6.385035 6.385035 6.385035 15.962588 0 22.347622-3.192518 3.192518-7.183164 4.788776-11.173811 4.788777z" fill=""></path><path d="M781.368667 205.119252c-3.990647 0-7.981294-1.596259-11.173811-4.788777-6.385035-6.385035-6.385035-15.962588 0-22.347622l38.31021-38.310211c6.385035-6.385035 15.962588-6.385035 22.347623 0s6.385035 15.962588 0 22.347623l-38.31021 38.31021c-3.192518 3.192518-7.183164 4.788776-11.173812 4.788777z" fill=""></path></svg></g></g></svg></g></svg>